<svg width="96" height="96" viewBox="0 0 96 96" fill="none" xmlns="http://www.w3.org/2000/svg">
<rect width="96" height="96" rx="48" fill="white"/>
<rect width="96" height="96" rx="45" fill="#29A867"/>
<mask id="path-3-inside-1_1219_1259" fill="white">
<path d="M67.36 29.7985C67.3109 29.2169 66.821 28.7713 66.2373 28.777H57.7044V25.5434C57.7044 20.2726 53.4313 16 48.161 16C42.8902 16 38.6176 20.2726 38.6176 25.5434V28.777H30.0846C29.5035 28.7792 29.0185 29.2204 28.9619 29.7985L26.0204 63.6161C25.8866 65.184 26.4164 66.7366 27.4817 67.8958C28.5466 69.0545 30.0487 69.7137 31.6227 69.7123H64.7102C66.2842 69.7137 67.7863 69.0545 68.8512 67.8958C69.9165 66.7366 70.4467 65.184 70.313 63.6161L67.36 29.7985ZM40.8631 25.5434C40.8631 21.5129 44.1305 18.2455 48.161 18.2455C52.1915 18.2455 55.4589 21.5129 55.4589 25.5434V28.777H40.8631V25.5434ZM67.1916 66.3779C66.5566 67.0769 65.6544 67.473 64.7102 67.4668H31.6113C30.6671 67.4673 29.7662 67.0712 29.1277 66.3757C28.4895 65.6796 28.1724 64.7477 28.2545 63.8069L31.1061 31.0225H38.6176V38.0283C36.8119 38.584 35.6844 40.3765 35.9655 42.2448C36.2462 44.1127 37.8514 45.4942 39.7403 45.4942C41.6293 45.4942 43.234 44.1127 43.5151 42.2448C43.7958 40.3765 42.6682 38.584 40.8631 38.0283V31.0111H55.4589V38.0283C53.6532 38.584 52.5257 40.3765 52.8068 42.2448C53.0875 44.1127 54.6927 45.4942 56.5816 45.4942C58.4706 45.4942 60.0753 44.1127 60.3564 42.2448C60.6371 40.3765 59.5095 38.584 57.7044 38.0283V31.0111H65.2044L68.0561 63.7955C68.1482 64.7402 67.8337 65.6792 67.1916 66.3779V66.3779ZM39.5719 40.1168C39.6837 40.1317 39.7969 40.1317 39.9087 40.1168C40.7389 40.2063 41.3547 40.9299 41.31 41.7637C41.2648 42.5978 40.5754 43.2513 39.7403 43.2513C38.9048 43.2513 38.2154 42.5978 38.1707 41.7637C38.1259 40.9299 38.7412 40.2063 39.5719 40.1168ZM56.4132 40.1168C56.525 40.1317 56.6382 40.1317 56.75 40.1168C57.5802 40.2063 58.196 40.9299 58.1513 41.7637C58.1061 42.5978 57.4167 43.2513 56.5816 43.2513C55.7461 43.2513 55.0567 42.5978 55.0119 41.7637C54.9672 40.9299 55.5825 40.2063 56.4132 40.1168V40.1168Z"/>
</mask>
<path d="M67.36 29.7985C67.3109 29.2169 66.821 28.7713 66.2373 28.777H57.7044V25.5434C57.7044 20.2726 53.4313 16 48.161 16C42.8902 16 38.6176 20.2726 38.6176 25.5434V28.777H30.0846C29.5035 28.7792 29.0185 29.2204 28.9619 29.7985L26.0204 63.6161C25.8866 65.184 26.4164 66.7366 27.4817 67.8958C28.5466 69.0545 30.0487 69.7137 31.6227 69.7123H64.7102C66.2842 69.7137 67.7863 69.0545 68.8512 67.8958C69.9165 66.7366 70.4467 65.184 70.313 63.6161L67.36 29.7985ZM40.8631 25.5434C40.8631 21.5129 44.1305 18.2455 48.161 18.2455C52.1915 18.2455 55.4589 21.5129 55.4589 25.5434V28.777H40.8631V25.5434ZM67.1916 66.3779C66.5566 67.0769 65.6544 67.473 64.7102 67.4668H31.6113C30.6671 67.4673 29.7662 67.0712 29.1277 66.3757C28.4895 65.6796 28.1724 64.7477 28.2545 63.8069L31.1061 31.0225H38.6176V38.0283C36.8119 38.584 35.6844 40.3765 35.9655 42.2448C36.2462 44.1127 37.8514 45.4942 39.7403 45.4942C41.6293 45.4942 43.234 44.1127 43.5151 42.2448C43.7958 40.3765 42.6682 38.584 40.8631 38.0283V31.0111H55.4589V38.0283C53.6532 38.584 52.5257 40.3765 52.8068 42.2448C53.0875 44.1127 54.6927 45.4942 56.5816 45.4942C58.4706 45.4942 60.0753 44.1127 60.3564 42.2448C60.6371 40.3765 59.5095 38.584 57.7044 38.0283V31.0111H65.2044L68.0561 63.7955C68.1482 64.7402 67.8337 65.6792 67.1916 66.3779V66.3779ZM39.5719 40.1168C39.6837 40.1317 39.7969 40.1317 39.9087 40.1168C40.7389 40.2063 41.3547 40.9299 41.31 41.7637C41.2648 42.5978 40.5754 43.2513 39.7403 43.2513C38.9048 43.2513 38.2154 42.5978 38.1707 41.7637C38.1259 40.9299 38.7412 40.2063 39.5719 40.1168ZM56.4132 40.1168C56.525 40.1317 56.6382 40.1317 56.75 40.1168C57.5802 40.2063 58.196 40.9299 58.1513 41.7637C58.1061 42.5978 57.4167 43.2513 56.5816 43.2513C55.7461 43.2513 55.0567 42.5978 55.0119 41.7637C54.9672 40.9299 55.5825 40.2063 56.4132 40.1168V40.1168Z" fill="white"/>
<path d="M67.36 29.7985L-685.958 93.4271L-685.867 94.4944L-685.774 95.5615L67.36 29.7985ZM66.2373 28.777V784.777H69.9291L73.6208 784.741L66.2373 28.777ZM57.7044 28.777H-698.296V784.777H57.7044V28.777ZM38.6176 28.777V784.777H794.618V28.777H38.6176ZM30.0846 28.777V-727.223H28.6582L27.2319 -727.218L30.0846 28.777ZM28.9619 29.7985L-723.443 -43.8437L-723.841 -39.7801L-724.194 -35.7125L28.9619 29.7985ZM26.0204 63.6161L-727.136 -1.89483L-727.19 -1.27161L-727.243 -0.6483L26.0204 63.6161ZM27.4817 67.8958L584.123 -443.658L584.114 -443.667L27.4817 67.8958ZM31.6227 69.7123V-686.288H31.3068L30.9908 -686.287L31.6227 69.7123ZM64.7102 69.7123L65.3421 -686.287L65.0261 -686.288H64.7102V69.7123ZM68.8512 67.8958L-487.781 -443.667L-487.79 -443.658L68.8512 67.8958ZM70.313 63.6161L823.577 -0.648343L823.513 -1.39769L823.447 -2.1469L70.313 63.6161ZM55.4589 28.777V784.777H811.459V28.777H55.4589ZM40.8631 28.777H-715.137V784.777H40.8631V28.777ZM64.7102 67.4668L69.626 -688.517L67.1681 -688.533H64.7102V67.4668ZM31.6113 67.4668V-688.533H31.4358L31.2602 -688.533L31.6113 67.4668ZM29.1277 66.3757L-528.117 577.271L-527.949 577.454L-527.782 577.637L29.1277 66.3757ZM28.2545 63.8069L781.398 129.466L781.404 129.391L781.411 129.317L28.2545 63.8069ZM31.1061 31.0225V-724.977H-661.991L-722.05 -34.4877L31.1061 31.0225ZM38.6176 31.0225H794.618V-724.977H38.6176V31.0225ZM38.6176 38.0283L260.983 760.586L794.618 596.361V38.0283H38.6176ZM35.9655 42.2448L783.572 -70.098L783.561 -70.1709L783.55 -70.2439L35.9655 42.2448ZM43.5151 42.2448L791.096 154.759L791.11 154.661L791.125 154.562L43.5151 42.2448ZM40.8631 38.0283H-715.137V596.321L-181.552 760.571L40.8631 38.0283ZM40.8631 31.0111V-724.989H-715.137V31.0111H40.8631ZM55.4589 31.0111H811.459V-724.989H55.4589V31.0111ZM55.4589 38.0283L277.825 760.586L811.459 596.361V38.0283H55.4589ZM52.8068 42.2448L800.413 -70.098L800.402 -70.1709L800.391 -70.2439L52.8068 42.2448ZM60.3564 42.2448L807.937 154.759L807.952 154.661L807.967 154.562L60.3564 42.2448ZM57.7044 38.0283H-698.296V596.321L-164.711 760.571L57.7044 38.0283ZM57.7044 31.0111V-724.989H-698.296V31.0111H57.7044ZM65.2044 31.0111L818.361 -34.4992L758.301 -724.989H65.2044V31.0111ZM68.0561 63.7955L-685.1 129.306L-684.759 133.231L-684.377 137.152L68.0561 63.7955ZM67.1916 66.3779L-489.444 -445.182L-490.923 -443.572L-492.394 -441.953L67.1916 66.3779ZM39.5719 40.1168L139.488 -709.251L49.1879 -721.291L-41.3875 -711.536L39.5719 40.1168ZM39.9087 40.1168L120.91 -711.531L30.3141 -721.294L-60.0075 -709.251L39.9087 40.1168ZM41.31 41.7637L796.204 82.6439L796.214 82.4566L796.224 82.2694L41.31 41.7637ZM38.1707 41.7637L793.086 1.27921L793.085 1.26864L793.085 1.25807L38.1707 41.7637ZM56.75 40.1168L137.752 -711.531L47.1554 -721.294L-43.1662 -709.251L56.75 40.1168ZM58.1513 41.7637L813.045 82.6439L813.055 82.4566L813.065 82.2694L58.1513 41.7637ZM55.0119 41.7637L809.927 1.27921L809.927 1.26864L809.926 1.25807L55.0119 41.7637ZM820.678 -33.8302C787.298 -429.021 454.801 -731.054 58.8538 -727.187L73.6208 784.741C-321.159 788.597 -652.676 487.455 -685.958 93.4271L820.678 -33.8302ZM66.2373 -727.223H57.7044V784.777H66.2373V-727.223ZM813.704 28.777V25.5434H-698.296V28.777H813.704ZM813.704 25.5434C813.704 -397.277 470.936 -740 48.161 -740V772C-364.073 772 -698.296 437.822 -698.296 25.5434H813.704ZM48.161 -740C-374.637 -740 -717.382 -397.255 -717.382 25.5434H794.618C794.618 437.8 460.417 772 48.161 772V-740ZM-717.382 25.5434V28.777H794.618V25.5434H-717.382ZM38.6176 -727.223H30.0846V784.777H38.6176V-727.223ZM27.2319 -727.218C-360.786 -725.753 -685.553 -430.961 -723.443 -43.8437L781.367 103.441C743.59 489.402 419.793 783.312 32.9374 784.772L27.2319 -727.218ZM-724.194 -35.7125L-727.136 -1.89483L779.177 129.127L782.118 95.3094L-724.194 -35.7125ZM-727.243 -0.6483C-745.373 211.86 -673.567 422.318 -529.151 579.458L584.114 -443.667C726.4 -288.845 797.147 -81.4922 779.284 127.881L-727.243 -0.6483ZM-529.159 579.449C-384.825 736.505 -181.184 825.89 32.2546 825.712L30.9908 -686.287C241.282 -686.463 441.918 -598.396 584.123 -443.658L-529.159 579.449ZM31.6227 825.712H64.7102V-686.288H31.6227V825.712ZM64.0783 825.712C277.517 825.89 481.158 736.505 625.492 579.449L-487.79 -443.658C-345.585 -598.396 -144.949 -686.463 65.3421 -686.287L64.0783 825.712ZM625.484 579.458C769.8 422.428 841.719 212.008 823.577 -0.648343L-682.951 127.881C-700.826 -81.6402 -629.967 -288.955 -487.781 -443.667L625.484 579.458ZM823.447 -2.1469L820.494 -35.9646L-685.774 95.5615L-682.821 129.379L823.447 -2.1469ZM796.863 25.5434C796.863 439.04 461.658 774.246 48.161 774.246V-737.754C-373.397 -737.754 -715.137 -396.014 -715.137 25.5434H796.863ZM48.161 774.246C-365.336 774.246 -700.541 439.04 -700.541 25.5434H811.459C811.459 -396.015 469.719 -737.754 48.161 -737.754V774.246ZM-700.541 25.5434V28.777H811.459V25.5434H-700.541ZM55.4589 -727.223H40.8631V784.777H55.4589V-727.223ZM796.863 28.777V25.5434H-715.137V28.777H796.863ZM-492.394 -441.953C-348.699 -600.136 -144.396 -689.909 69.626 -688.517L59.7944 823.451C275.704 824.855 481.812 734.29 626.777 574.709L-492.394 -441.953ZM64.7102 -688.533H31.6113V823.467H64.7102V-688.533ZM31.2602 -688.533C242.375 -688.631 443.565 -600.079 586.037 -444.885L-527.782 577.637C-384.032 734.221 -181.041 823.566 31.9624 823.467L31.2602 -688.533ZM586.372 -444.52C728.806 -289.164 799.744 -80.979 781.398 129.466L-724.889 -1.85175C-743.399 210.474 -671.827 420.523 -528.117 577.271L586.372 -444.52ZM781.411 129.317L784.262 96.5328L-722.05 -34.4877L-724.902 -1.70332L781.411 129.317ZM31.1061 787.023H38.6176V-724.977H31.1061V787.023ZM-717.382 31.0225V38.0283H794.618V31.0225H-717.382ZM-183.748 -684.529C-543.1 -573.939 -767.573 -217.132 -711.619 154.733L783.55 -70.2439C838.942 297.885 616.724 651.107 260.983 760.586L-183.748 -684.529ZM-711.641 154.588C-655.74 526.589 -336.143 801.494 39.7403 801.494V-710.506C411.846 -710.506 728.232 -438.363 783.572 -70.098L-711.641 154.588ZM39.7403 801.494C415.763 801.494 735.15 526.479 791.096 154.759L-704.065 -70.2696C-648.682 -438.254 -332.505 -710.506 39.7403 -710.506V801.494ZM791.125 154.562C846.966 -217.126 622.642 -573.894 263.278 -684.514L-181.552 760.571C-537.305 651.062 -759.374 297.879 -704.095 -70.0722L791.125 154.562ZM796.863 38.0283V31.0111H-715.137V38.0283H796.863ZM40.8631 787.011H55.4589V-724.989H40.8631V787.011ZM-700.541 31.0111V38.0283H811.459V31.0111H-700.541ZM-166.907 -684.529C-526.258 -573.939 -750.732 -217.132 -694.778 154.733L800.391 -70.2439C855.783 297.885 633.565 651.107 277.825 760.586L-166.907 -684.529ZM-694.799 154.588C-638.899 526.588 -319.302 801.494 56.5816 801.494V-710.506C428.688 -710.506 745.074 -438.362 800.413 -70.098L-694.799 154.588ZM56.5816 801.494C432.605 801.494 751.991 526.479 807.937 154.759L-687.224 -70.2696C-631.841 -438.254 -315.664 -710.506 56.5816 -710.506V801.494ZM807.967 154.562C863.807 -217.126 639.484 -573.893 280.12 -684.514L-164.711 760.571C-520.465 651.061 -742.533 297.879 -687.254 -70.0722L807.967 154.562ZM813.704 38.0283V31.0111H-698.296V38.0283H813.704ZM57.7044 787.011H65.2044V-724.989H57.7044V787.011ZM-687.952 96.5214L-685.1 129.306L821.212 -1.71478L818.361 -34.4992L-687.952 96.5214ZM-684.377 137.152C-705.146 -75.8861 -634.227 -287.641 -489.444 -445.182L623.827 577.937C769.894 419 841.443 205.367 820.489 -9.56139L-684.377 137.152ZM-60.3442 789.485C6.08488 798.342 73.3957 798.342 139.825 789.485L-60.0075 -709.251C6.19807 -718.079 73.2826 -718.079 139.488 -709.251L-60.3442 789.485ZM-41.093 791.765C-439.579 748.822 -735.091 401.711 -713.604 1.25797L796.224 82.2694C817.8 -319.851 521.057 -668.409 120.91 -711.531L-41.093 791.765ZM-713.584 0.88349C-691.929 -398.996 -361.409 -712.749 39.7403 -712.749V799.251C442.56 799.251 774.459 484.192 796.204 82.6439L-713.584 0.88349ZM39.7403 -712.749C440.679 -712.749 771.613 -399.127 793.086 1.27921L-716.745 82.2481C-695.182 484.323 -362.87 799.251 39.7403 799.251V-712.749ZM793.085 1.25807C814.562 401.539 519.223 748.827 120.531 791.769L-41.3875 -711.536C-441.741 -668.414 -738.31 -319.679 -716.743 82.2693L793.085 1.25807ZM-43.5029 789.485C22.9262 798.342 90.237 798.342 156.666 789.485L-43.1662 -709.251C23.0394 -718.079 90.1239 -718.079 156.329 -709.251L-43.5029 789.485ZM-24.2517 791.765C-422.739 748.822 -718.249 401.71 -696.763 1.25797L813.065 82.2694C834.641 -319.85 537.9 -668.409 137.752 -711.531L-24.2517 791.765ZM-696.743 0.88349C-675.088 -398.996 -344.568 -712.749 56.5816 -712.749V799.251C459.401 799.251 791.3 484.192 813.045 82.6439L-696.743 0.88349ZM56.5816 -712.749C457.522 -712.749 788.454 -399.126 809.927 1.27921L-699.903 82.2481C-678.341 484.322 -346.03 799.251 56.5816 799.251V-712.749ZM809.926 1.25807C831.403 401.538 536.065 748.827 137.373 791.769L-24.5462 -711.536C-424.9 -668.414 -721.469 -319.678 -699.902 82.2693L809.926 1.25807Z" fill="white" mask="url(#path-3-inside-1_1219_1259)"/>
<path d="M48.069 62.2042C47.144 62.2042 46.3116 62.0456 45.5716 61.7285C44.8317 61.3982 44.2503 60.9357 43.8275 60.3411C43.4047 59.7465 43.1933 59.0528 43.1933 58.26H45.6113C45.6641 58.8546 45.8954 59.3435 46.305 59.7267C46.7278 60.1099 47.3158 60.3015 48.069 60.3015C48.8485 60.3015 49.4564 60.1165 49.8924 59.7465C50.3284 59.3633 50.5464 58.8744 50.5464 58.2798C50.5464 57.8174 50.4077 57.4408 50.1302 57.1501C49.866 56.8594 49.529 56.6348 49.1194 56.4762C48.723 56.3177 48.1681 56.1459 47.4545 55.9609C46.556 55.7231 45.8227 55.4852 45.2545 55.2474C44.6996 54.9963 44.2239 54.6131 43.8275 54.0978C43.4311 53.5825 43.2329 52.8954 43.2329 52.0365C43.2329 51.2438 43.4311 50.5501 43.8275 49.9555C44.2239 49.3609 44.7789 48.905 45.4924 48.5879C46.2059 48.2708 47.0317 48.1122 47.9699 48.1122C49.3044 48.1122 50.3945 48.4491 51.2401 49.123C52.099 49.7837 52.5747 50.6954 52.6672 51.8582H50.1699C50.1302 51.3561 49.8924 50.9266 49.4564 50.5699C49.0203 50.2131 48.4455 50.0347 47.732 50.0347C47.0846 50.0347 46.556 50.1999 46.1464 50.5302C45.7368 50.8606 45.532 51.3362 45.532 51.9573C45.532 52.3801 45.6575 52.7302 45.9086 53.0077C46.1729 53.272 46.5032 53.4834 46.8996 53.642C47.296 53.8005 47.8377 53.9723 48.5248 54.1573C49.4365 54.4083 50.1765 54.6594 50.7446 54.9104C51.326 55.1615 51.8149 55.5513 52.2113 56.0798C52.6209 56.5951 52.8257 57.2888 52.8257 58.1609C52.8257 58.8612 52.6341 59.5219 52.251 60.1429C51.881 60.7639 51.3326 61.266 50.6059 61.6492C49.8924 62.0192 49.0467 62.2042 48.069 62.2042Z" fill="white"/>
</svg>
